<?xml version="1.0" encoding="UTF-8" standalone="no"?>
<!DOCTYPE svg PUBLIC "-//W3C//DTD SVG 1.1//EN" "http://www.w3.org/Graphics/SVG/1.1/DTD/svg11.dtd">
<svg width="100%" height="100%" viewBox="0 0 1605 389" version="1.1" xmlns="http://www.w3.org/2000/svg" xmlns:xlink="http://www.w3.org/1999/xlink" xml:space="preserve" xmlns:serif="http://www.serif.com/" style="fill-rule:evenodd;clip-rule:evenodd;stroke-linejoin:round;stroke-miterlimit:2;">
    <g id="Artboard1" transform="matrix(0.688654,0,0,0.469111,345.159546,-146.485827)">
        <rect x="-501.209" y="312.263" width="2329.534" height="829.016" style="fill:none;"/>
        <clipPath id="_clip1">
            <rect x="-501.209" y="312.263" width="2329.534" height="829.016"/>
        </clipPath>
        <g clip-path="url(#_clip1)">
            <g transform="matrix(0.736503,0,0,1.081185,-177.655516,311.248998)">
                <g transform="matrix(1,0,0,1,0.689797,0.9374)">
                    <path d="M0,0L2,0C2.381,0.692 2.762,1.384 3.155,2.098C10.551,15.516 18.032,28.867 25.797,42.076C29.957,49.168 34.003,56.316 38,63.5C42.576,71.722 47.236,79.886 52,88C57.372,97.149 62.591,106.374 67.75,115.645C71.75,122.814 75.843,129.921 80,137C85.372,146.149 90.591,155.374 95.75,164.645C99.75,171.814 103.843,178.921 108,186C113.372,195.149 118.591,204.374 123.75,213.645C127.75,220.814 131.843,227.921 136,235C141.372,244.149 146.591,253.374 151.75,262.645C155.75,269.814 159.843,276.921 164,284C168.764,292.114 173.424,300.278 178,308.5C183.162,317.774 188.449,326.966 193.82,336.121C198.332,343.822 202.734,351.58 207.108,359.36C210.983,366.239 214.942,373.065 218.938,379.875C224.328,389.067 229.568,398.333 234.75,407.644C238.749,414.813 242.843,421.921 247,429C252.372,438.149 257.591,447.374 262.75,456.645C266.75,463.814 270.843,470.921 275,478C280.372,487.149 285.591,496.374 290.75,505.645C294.75,512.814 298.843,519.921 303,527C308.372,536.149 313.591,545.374 318.75,554.645C322.75,561.814 326.843,568.921 331,576C336.372,585.149 341.591,594.374 346.75,603.645C350.75,610.814 354.843,617.921 359,625C364.372,634.149 369.591,643.374 374.75,652.645C378.75,659.814 382.843,666.921 387,674C392.372,683.149 397.591,692.374 402.75,701.645C407.306,709.81 411.997,717.89 416.735,725.952C421.657,734.353 426.421,742.837 431.119,751.365C434.429,757.338 437.795,763.407 441.564,769.102C442.865,771.293 443,771 443,773L-410.834,773C-409.384,769.374 -325.695,654.795 -321.68,647.58C-316.544,638.351 -216,378.25 -39,68.5C-38.505,67.634 -38.505,67.634 -38,66.75C-37.333,65.583 -36.666,64.416 -35.999,63.248C-34.338,60.341 -32.676,57.434 -31.015,54.526C-27.952,49.164 -24.887,43.803 -21.821,38.442C-14.503,25.653 -7.19,12.862 0,0Z" style="fill:rgb(254,145,77);fill-rule:nonzero;"/>
                </g>
                <g transform="matrix(1,0,0,1,-124.872703,123.9999)">
                    <path d="M0,0C1.012,0.493 1.012,0.493 2.045,0.995C2.689,1.318 3.333,1.64 3.996,1.973C4.564,2.255 5.132,2.537 5.717,2.828C8.185,4.312 10.343,6.108 12.562,7.938C3.334,23.519 -5.902,39.097 -15.151,54.667C-18.793,60.797 -22.433,66.927 -26.065,73.063C-28.063,76.438 -30.063,79.813 -32.062,83.188C-32.456,83.851 -32.849,84.515 -33.255,85.2C-39.181,95.194 -45.193,105.132 -51.248,115.049C-56.955,124.407 -62.475,133.863 -67.924,143.374C-72.696,151.691 -77.591,159.925 -82.541,168.137C-87.623,176.572 -92.663,185.031 -97.688,193.5C-98.493,194.857 -99.298,196.215 -100.104,197.572C-103.762,203.737 -107.418,209.903 -111.069,216.072C-113.066,219.444 -115.064,222.816 -117.062,226.188C-117.651,227.181 -117.651,227.181 -118.252,228.194C-124.245,238.303 -130.327,248.355 -136.45,258.386C-141.429,266.55 -146.26,274.781 -150.965,283.106C-155.018,290.259 -159.208,297.325 -163.438,304.375C-164.073,305.436 -164.709,306.497 -165.364,307.591C-168.287,312.448 -171.23,317.263 -174.438,321.938C-207.621,310.165 -234.003,271.252 -248.523,241.117C-269.288,196.652 -273.022,145.893 -256.542,99.413C-246.857,73.637 -231.895,51.306 -212.438,31.938C-211.513,31.013 -210.589,30.089 -209.637,29.137C-154.461,-23.359 -67.232,-32.945 0,0Z" style="fill:rgb(255,189,89);fill-rule:nonzero;"/>
                </g>
                <g transform="matrix(1,0,0,1,-160.310203,305.9374)">
                    <path d="M-8,-7C-2.996,-5.45 8.384,4.557 12.312,7.875C17.794,12.421 23.338,16.828 29.062,21.062C34.271,24.923 39.393,28.865 44.438,32.938C50.37,37.726 56.388,42.388 62.455,47.006C69.924,52.694 77.33,58.462 84.734,64.234C88.487,67.159 92.244,70.079 96,73C100.56,76.546 105.119,80.092 109.676,83.641C116.272,88.776 122.87,93.909 129.5,99C136.916,104.695 144.292,110.441 151.669,116.186C155.445,119.125 159.223,122.063 163,125C167.559,128.546 172.119,132.092 176.676,135.641C183.272,140.776 189.87,145.909 196.5,151C203.916,156.695 211.292,162.441 218.669,168.186C222.445,171.125 226.223,174.063 230,177C234.559,180.546 239.119,184.092 243.676,187.641C250.272,192.776 256.87,197.909 263.5,203C272.485,209.9 281.414,216.872 290.353,223.832C301.407,232.441 301.407,232.441 312.5,241C319.916,246.695 327.292,252.441 334.669,258.186C338.445,261.125 342.223,264.063 346,267C350.559,270.546 355.119,274.092 359.676,277.641C366.272,282.776 372.87,287.909 379.5,293C386.916,298.695 394.292,304.441 401.669,310.186C405.445,313.125 409.223,316.063 413,319C417.559,322.546 422.119,326.092 426.676,329.641C433.272,334.776 439.87,339.909 446.5,345C453.916,350.695 461.292,356.441 468.669,362.186C472.445,365.125 476.223,368.063 480,371C484.559,374.546 489.119,378.092 493.676,381.641C500.272,386.776 506.87,391.909 513.5,397C520.916,402.695 528.292,408.441 535.669,414.186C539.445,417.125 543.223,420.063 547,423C551.559,426.546 556.119,430.092 560.676,433.641C568.372,439.632 576.077,445.609 583.82,451.539C586.166,453.345 588.489,455.178 590.805,457.023C591.442,457.53 592.079,458.036 592.735,458.558C593.967,459.538 595.195,460.522 596.421,461.51C598.944,463.518 600.914,464.971 604,466L604,468L415.311,468C412.341,464.7 408.06,459.4 405,456C401.5,452 401.5,452 399.805,450.055C396.244,446 392.617,442.005 389,438C384.23,432.717 379.481,427.421 374.805,422.055C371.244,418 367.617,414.005 364,410C359.23,404.717 354.481,399.421 349.805,394.055C346.244,390 342.617,386.005 339,382C330.431,372.511 330.431,372.511 326.562,368.062C323.752,364.834 320.884,361.663 318,358.5C314.544,354.711 311.135,350.889 307.77,347.02C304.224,342.973 300.605,338.993 297,335C292.23,329.717 287.481,324.421 282.805,319.055C279.244,315 275.617,311.005 272,307C267.23,301.717 262.481,296.421 257.805,291.055C254.244,287 250.617,283.005 247,279C238.431,269.511 238.431,269.511 234.562,265.062C231.752,261.834 228.884,258.663 226,255.5C222.544,251.711 219.135,247.889 215.77,244.02C212.224,239.973 208.605,235.993 205,232C200.23,226.717 195.481,221.421 190.805,216.055C187.244,212 183.617,208.005 180,204C175.23,198.717 170.481,193.421 165.805,188.055C162.244,184 158.617,180.005 155,176C146.431,166.511 146.431,166.511 142.562,162.062C139.752,158.834 136.884,155.663 134,152.5C130.544,148.711 127.135,144.889 123.77,141.02C120.224,136.973 116.605,132.993 113,129C108.23,123.717 103.481,118.421 98.805,113.055C95.244,109 91.617,105.005 88,101C83.23,95.717 78.481,90.421 73.805,85.055C70.244,81 66.617,77.005 63,73C54.431,63.511 54.431,63.511 50.562,59.062C47.752,55.834 44.884,52.663 42,49.5C38.544,45.711 35.135,41.889 31.77,38.02C28.224,33.973 24.605,29.993 21,26C15.619,20.041 10.252,14.073 5,8C4.491,7.42 3.982,6.84 3.457,6.242C0,2.233 -8,-4.767 -8,-7Z" style="fill:rgb(253,188,90);fill-rule:nonzero;"/>
                </g>
                <g transform="matrix(1,0,0,1,-168.310203,298.9374)">
                    <g transform="matrix(1,0,0,1.00211,0,0)">
                        <path d="M0,0C2.492,3.322 3.893,5.737 5.469,9.477C5.948,10.601 6.427,11.725 6.92,12.884C7.176,13.49 7.432,14.096 7.695,14.721C9.114,18.079 10.554,21.429 11.996,24.777C12.309,25.504 12.622,26.231 12.944,26.979C17.031,36.435 21.302,45.809 25.562,55.188C27.211,58.82 28.86,62.453 30.508,66.086C30.903,66.957 31.298,67.828 31.705,68.725C36.281,78.815 40.776,88.94 45.26,99.071C49.042,107.613 52.833,116.15 56.625,124.688C57.053,125.652 57.482,126.617 57.923,127.611C64.363,142.107 70.848,156.581 77.367,171.041C83.397,184.413 89.373,197.809 95.322,211.217C99.278,220.133 103.253,229.04 107.25,237.938C112.33,249.247 117.368,260.575 122.398,271.907C129.308,287.477 136.248,303.033 143.25,318.562C149.557,332.551 155.818,346.559 162.041,360.584C166.757,371.212 171.497,381.827 176.25,392.438C182.73,406.907 189.185,421.388 195.625,435.875C196.045,436.819 196.465,437.763 196.897,438.735C199.603,444.821 202.305,450.909 205,457C205.358,457.808 205.716,458.617 206.084,459.45C207.087,461.718 208.087,463.988 209.086,466.258C209.384,466.931 209.682,467.605 209.989,468.299C212,472.884 212,472.884 212,474L0,474L0,0Z" style="fill:rgb(254,87,86);fill-rule:nonzero;"/>
                    </g>
                </g>
                <g transform="matrix(1,0,0,1.00211,-169.310203,298.9374)">
                    <path d="M0.025,-0.327L1,0L1,474L-270,474C-268.494,470.236 -266.968,466.965 -265.016,463.449C-264.417,462.371 -263.819,461.292 -263.203,460.181C-262.552,459.016 -261.901,457.852 -261.25,456.688C-260.918,456.091 -260.586,455.495 -260.243,454.88C-255.013,445.492 -249.648,436.188 -244.202,426.923C-240.043,419.832 -235.997,412.684 -232,405.5C-226.864,396.271 -221.598,387.128 -216.25,378.02C-212.078,370.895 -208.015,363.715 -204,356.5C-198.864,347.271 -193.598,338.128 -188.25,329.02C-184.078,321.895 -180.015,314.714 -176,307.5C-170.902,298.343 -165.687,289.263 -160.386,280.222C-155.917,272.592 -151.506,264.93 -147.125,257.25C-146.792,256.666 -146.458,256.081 -146.115,255.479C-144.42,252.508 -142.726,249.536 -141.032,246.564C-138.025,241.289 -135.011,236.018 -131.998,230.746C-130.332,227.831 -128.666,224.915 -127,222C-126.333,220.833 -125.667,219.667 -125,218.5C-124.67,217.923 -124.34,217.345 -124,216.75C-41,71.5 -41,71.5 -40,69.75C-39.333,68.583 -38.666,67.416 -37.999,66.249C-36.337,63.339 -34.674,60.429 -33.011,57.52C-29.614,51.575 -26.218,45.63 -22.824,39.684C-19.496,33.852 -16.164,28.024 -12.829,22.197C-11.635,20.109 -10.441,18.021 -9.249,15.932C-7.69,13.203 -6.127,10.476 -4.562,7.75C-4.108,6.951 -3.653,6.153 -3.184,5.33C-2.151,3.536 0.025,-0.327 0.025,-0.327Z" style="fill-rule:nonzero;"/>
                </g>
                <g transform="matrix(1,0,0,1,0.689797,0.9374)">
                    <path d="M0,0L2,0C2.381,0.692 2.762,1.384 3.155,2.098C10.551,15.516 18.032,28.867 25.797,42.076C29.957,49.168 34.003,56.316 38,63.5C42.576,71.722 47.236,79.886 52,88C57.372,97.149 62.591,106.374 67.75,115.645C71.75,122.814 75.843,129.921 80,137C85.372,146.149 90.591,155.374 95.75,164.645C99.75,171.814 103.843,178.921 108,186C113.372,195.149 118.591,204.374 123.75,213.645C127.75,220.814 131.843,227.921 136,235C141.372,244.149 146.591,253.374 151.75,262.645C155.75,269.814 159.843,276.921 164,284C168.764,292.114 173.424,300.278 178,308.5C183.162,317.774 188.449,326.966 193.82,336.121C198.332,343.822 202.734,351.58 207.108,359.36C210.983,366.239 214.942,373.065 218.938,379.875C224.328,389.067 229.568,398.333 234.75,407.644C238.749,414.813 242.843,421.921 247,429C252.372,438.149 257.591,447.374 262.75,456.645C266.75,463.814 270.843,470.921 275,478C280.372,487.149 285.591,496.374 290.75,505.645C294.75,512.814 298.843,519.921 303,527C308.372,536.149 313.591,545.374 318.75,554.645C322.75,561.814 326.843,568.921 331,576C336.372,585.149 341.591,594.374 346.75,603.645C350.75,610.814 354.843,617.921 359,625C364.372,634.149 369.591,643.374 374.75,652.645C378.75,659.814 382.843,666.921 387,674C392.372,683.149 397.591,692.374 402.75,701.645C407.305,709.81 411.997,717.888 416.732,725.95C421.674,734.386 426.465,742.903 431.207,751.453C431.747,752.425 432.287,753.397 432.844,754.398C433.362,755.331 433.88,756.264 434.414,757.226C436.51,760.892 438.745,764.465 441.014,768.026C441.339,768.677 443,771.187 443,771.187L443,773C443,773 439.927,771.091 438.832,770.164C431.896,764.332 424.832,758.717 417.619,753.232C415.01,751.247 412.412,749.248 409.812,747.25C409.286,746.845 408.759,746.44 408.216,746.022C401.232,740.648 394.283,735.229 387.331,729.814C383.555,726.875 379.777,723.937 376,721C371.441,717.454 366.881,713.908 362.324,710.359C355.728,705.224 349.13,700.091 342.5,695C335.084,689.305 327.708,683.559 320.331,677.814C316.555,674.875 312.777,671.937 309,669C304.441,665.454 299.881,661.908 295.324,658.359C288.728,653.224 282.13,648.091 275.5,643C268.084,637.305 260.708,631.559 253.331,625.814C249.555,622.875 245.777,619.937 242,617C237.441,613.454 232.881,609.908 228.324,606.359C221.728,601.224 215.13,596.091 208.5,591C201.084,585.305 193.708,579.559 186.331,573.814C182.555,570.875 178.777,567.937 175,565C170.441,561.454 165.881,557.908 161.324,554.359C154.728,549.224 148.13,544.091 141.5,539C132.515,532.1 123.586,525.128 114.647,518.168C103.593,509.559 103.593,509.559 92.5,501C85.084,495.305 77.708,489.559 70.331,483.814C66.555,480.875 62.777,477.937 59,475C54.441,471.454 49.881,467.908 45.324,464.359C38.728,459.224 32.13,454.091 25.5,449C18.084,443.305 10.708,437.559 3.331,431.814C-0.445,428.875 -4.223,425.937 -8,423C-12.559,419.454 -17.119,415.908 -21.676,412.359C-28.272,407.224 -34.87,402.091 -41.5,397C-48.916,391.305 -56.292,385.559 -63.669,379.814C-67.445,376.875 -71.223,373.937 -75,371C-79.559,367.454 -84.119,363.908 -88.676,360.359C-95.272,355.224 -101.87,350.091 -108.5,345C-115.916,339.305 -123.292,333.559 -130.669,327.814C-134.445,324.875 -138.223,321.938 -142,319C-143.477,317.852 -144.953,316.703 -146.43,315.555C-147.539,314.692 -169.975,297.689 -169.975,297.689C-169.975,297.689 -165.934,290.904 -164.016,287.449C-163.417,286.371 -162.819,285.292 -162.203,284.181C-161.552,283.016 -160.901,281.852 -160.25,280.688C-159.918,280.091 -159.586,279.495 -159.243,278.88C-154.013,269.492 -148.648,260.188 -143.202,250.923C-139.043,243.832 -134.997,236.684 -131,229.5C-125.864,220.271 -120.598,211.128 -115.25,202.02C-111.078,194.895 -107.015,187.715 -103,180.5C-97.864,171.271 -92.598,162.128 -87.25,153.02C-83.078,145.895 -79.015,138.715 -75,131.5C-69.864,122.271 -64.598,113.128 -59.25,104.02C-55.078,96.895 -51.015,89.715 -47,82.5C-42.424,74.278 -37.764,66.114 -33,58C-27.597,48.796 -22.335,39.522 -17.14,30.199C-11.504,20.089 -5.765,10.038 0,0Z" style="fill-rule:nonzero;"/>
                </g>
            </g>
            <g transform="matrix(1.452108,0,0,2.131691,1346.740472,1365.034677)">
                <g transform="matrix(1,0,0,1,-685.262763,-386.937401)">
                    <path d="M0,0L3.008,-0.003C5.099,-0.004 7.191,-0.002 9.283,0.002C12.432,0.008 15.58,0.003 18.729,-0.004C33.767,-0.009 48.625,0.058 63.402,3.133L66.812,3.719C94.953,8.749 121.653,22.257 139.402,45.133C151.568,63.622 155.579,82.082 155.59,104.008L155.627,107.941C155.665,133.369 146.84,155.749 129.402,174.133C98.101,205.265 50.072,208.6 8.478,208.502C-31.047,208.219 -71.667,199.87 -100.598,171.133C-117.391,153.459 -123.772,130.481 -123.838,106.681C-123.848,104.599 -123.879,102.518 -123.91,100.436C-124.09,77.454 -117.337,54.423 -101.16,37.636C-99.654,36.119 -98.13,34.623 -96.598,33.133L-94.062,30.605C-74.086,11.603 -46.216,4.56 -19.598,1.133L-17.685,0.877C-11.774,0.143 -5.952,-0.013 0,0ZM53.402,63.133C36.703,51.126 10.947,49.618 -8.223,56.008L-10.598,57.133C-18.742,60.887 -24.507,65.678 -30.45,72.43C-39.355,83.635 -41.506,97.147 -40.598,111.133C-38.719,122.889 -33.145,135.439 -23.512,142.801L-21.598,144.133C-20.142,145.207 -18.661,146.247 -17.16,147.258C-3.034,155.282 17.064,157.045 32.785,153.215L36.402,152.133C44.407,149.807 50.959,146.451 57.402,141.133C66.607,131.928 71.681,119.051 71.921,106.141L71.902,103.383C71.852,92.253 70.087,81.63 62.828,72.707L61.402,71.133C58.902,68.232 56.329,65.607 53.402,63.133Z"/>
                    <g transform="matrix(1,0,0,1,189.402344,3.132812)">
                        <path d="M0,0L69.188,-0.062L90.852,-0.09C99.735,-0.095 99.735,-0.095 103.923,-0.095C106.783,-0.096 109.644,-0.1 112.504,-0.106C225.312,-0.314 225.312,-0.314 255,26L256.969,27.586C266.022,35.56 272.276,48.923 273.231,60.902C274.008,78.827 273.733,95.44 262,110L260.742,111.777C254.971,119.397 245.585,125.102 237,129L235,129L235,131L237.66,131.805C248.499,135.684 256.709,142.911 261.75,153.188C265.174,161.327 266.721,169.793 267.938,178.5C268.768,184.336 270.325,189.738 272.195,195.32C273,198 273,198 273,201L194,201C189.196,192.593 186.413,184.794 184.062,175.438C181.194,164.559 177.608,156.425 168,150C164.416,148.265 160.845,147.022 157,146L153.244,144.977C146.603,143.519 139.89,143.643 133.121,143.586C131.699,143.567 130.277,143.548 128.855,143.527C125.141,143.476 121.428,143.436 117.714,143.399C113.243,143.352 108.771,143.29 104.3,143.231C97.533,143.143 90.767,143.073 84,143L84,201L0,201L0,0ZM84,50L84,93C91.013,93.017 98.027,93.037 105.04,93.046C109.687,93.052 114.333,93.057 118.98,93.069C122.83,93.08 126.68,93.09 130.53,93.093L134.977,93.098C150.561,93.157 167.014,93.993 181.328,86.836C185.355,84.213 187.59,81.56 189,77C189.627,70.505 189.935,65.454 186,60C178.614,53.75 169.45,51.963 160.06,51.13L156.992,50.891C143.298,49.814 129.636,49.762 115.906,49.849C112.525,49.871 109.144,49.886 105.763,49.896C98.509,49.918 91.254,49.958 84,50Z" style="fill:rgb(1,1,1);"/>
                    </g>
                    <g transform="matrix(1,0,0,1,624.402344,4.132812)">
                        <path d="M0,0L86,-0.188L113.023,-0.27C124.023,-0.284 124.023,-0.284 129.194,-0.286C132.759,-0.289 136.324,-0.3 139.889,-0.317C177.835,-0.485 177.835,-0.485 196.698,2.623C199.724,3.118 202.758,3.539 205.794,3.959C226.925,7.108 250.082,16.037 263.375,33.312C273.425,48.12 276.33,66.527 273.5,84.105C272.812,86.816 271.975,89.38 271,92L269.934,95.02C263.87,110.928 252.246,121.001 237,128L235,128L235,130L237.375,130.625C248.773,134.948 257.341,141.904 262.594,152.969C265.415,160.284 266.424,168.264 267.836,175.941C269.106,182.789 270.941,189.348 273,196L274,200L194,200C188.386,188.771 188.386,188.771 187.156,184.09L186.316,181.029L184.684,174.834C183.086,169.019 181.206,164.006 178.068,158.842C177,157 177,157 176,154C174.141,152.914 174.141,152.914 172,152C170.786,151.197 169.577,150.384 168.375,149.562C160.685,144.69 151.556,142.919 142.557,142.795L138.676,142.734L134.512,142.684L130.228,142.621C126.482,142.566 122.735,142.516 118.989,142.468C114.487,142.409 109.986,142.342 105.485,142.277C98.657,142.18 91.828,142.091 85,142L85,200L0,200L0,0ZM85,49L85,92C92.075,92.035 99.15,92.073 106.225,92.092C110.92,92.104 115.615,92.113 120.31,92.137C124.195,92.16 128.079,92.179 131.964,92.187L136.465,92.195C144.319,92.254 152.081,92.193 159.9,91.359L162.147,91.101C170.166,90.187 177.944,88.586 184.5,83.625C187.706,80.259 189.673,77.522 190.281,72.828C190.516,67.004 189.617,62.876 185.582,58.441C174.633,48.749 174.633,48.749 118.656,48.925C115.09,48.936 111.524,48.943 107.959,48.948C100.306,48.959 92.653,48.979 85,49Z" style="fill:rgb(1,1,1);"/>
                    </g>
                    <g transform="matrix(1,0,0,1,931.402344,3.132812)">
                        <rect x="0" y="0" width="84" height="201" style="fill:rgb(1,1,1);"/>
                    </g>
                    <g transform="matrix(1,0,0,1,496.402344,3.132812)">
                        <rect x="0" y="0" width="84" height="201" style="fill:rgb(1,1,1);"/>
                    </g>
                </g>
            </g>
        </g>
    </g>
</svg>
