<?xml version="1.0" encoding="UTF-8" standalone="no"?>
<!DOCTYPE svg PUBLIC "-//W3C//DTD SVG 1.1//EN" "http://www.w3.org/Graphics/SVG/1.1/DTD/svg11.dtd">
<svg width="100%" height="100%" viewBox="0 0 1206 226" version="1.1" xmlns="http://www.w3.org/2000/svg" xmlns:xlink="http://www.w3.org/1999/xlink" xml:space="preserve" xmlns:serif="http://www.serif.com/" style="fill-rule:evenodd;clip-rule:evenodd;stroke-linejoin:round;stroke-miterlimit:2;">
    <g id="Artboard1" transform="matrix(1,0,0,1.005335,0,0)">
        <rect x="-0" y="-0" width="1205.315" height="224.038" style="fill:none;"/>
        <clipPath id="_clip1">
            <rect x="-0" y="-0" width="1205.315" height="224.038"/>
        </clipPath>
        <g clip-path="url(#_clip1)">
            <g transform="matrix(1,0,0,0.994693,267.904377,38.829929)">
                <path d="M0,0C14.272,13.662 22.909,30.738 27.41,49.75L28.156,52.801C33.365,79.348 29.425,110.827 14.41,133.75C-5.955,162.972 -37.059,176.826 -71.277,183.255C-86.894,185.934 -102.543,186.01 -118.34,186L-121.359,185.998C-136.25,185.964 -150.95,185.673 -165.652,183.062L-168.606,182.538C-199.762,176.749 -229.902,164.381 -249.277,138C-255.043,129.277 -259.41,120.181 -262.402,110.188L-262.993,108.226C-266.103,97.113 -266.956,85.936 -266.902,74.438L-266.885,70.577C-266.533,43.21 -257.067,19.956 -237.59,0.75L-235.383,-1.488C-181.192,-53.192 -54.811,-47.619 0,0ZM-119.652,22.5C-129.97,22.428 -139.397,22.839 -148.803,27.414L-150.777,28.438C-155.812,31.022 -160.406,33.515 -164.148,37.863L-165.59,39.75C-169.699,44.741 -172.962,49.929 -175.527,55.875C-179.973,69.377 -179.668,85.922 -174,98.98L-172.59,101.75C-168.397,110.295 -161.645,117.23 -153.464,122.062C-136.752,130.293 -114.905,131.927 -96.84,127C-81.336,121.037 -70.777,113.687 -63.656,98.246L-62.59,95.75C-61.086,92.423 -60.152,89.367 -59.59,85.75C-58.525,67.554 -61.011,51.92 -73.59,37.75C-85.446,26.054 -100.078,22.515 -116.31,22.477L-119.652,22.5Z"/>
            </g>
            <g transform="matrix(1,0,0,0.994693,332.314533,8.740467)">
                <path d="M0,0L84.938,-0.188L111.554,-0.27C122.45,-0.284 122.45,-0.284 127.584,-0.286C131.098,-0.289 134.611,-0.3 138.125,-0.317C240.608,-0.779 240.608,-0.779 271.889,28.675C285.185,41.886 289.175,58.019 289.312,76.125C289.338,92.019 285.31,108.192 274.102,120.066C266.544,127.02 258.154,132.405 249,137L251.492,138.215C263.637,144.399 273.234,151.394 278.259,164.662C280.437,171.537 281.521,178.725 282.801,185.809C283.943,192.006 285.567,197.962 287.477,203.962C288.372,206.781 289,209.017 289,212L205,212C199.408,200.816 199.408,200.816 198,195.312L197.016,191.719L196,188C192.138,174.229 187.357,163.924 174.711,156.34C167.312,152.683 159.956,151.898 151.78,151.795L149.708,151.765C147.473,151.733 145.238,151.708 143.004,151.684L138.326,151.621C134.24,151.566 130.155,151.516 126.07,151.468C121.158,151.408 116.246,151.342 111.334,151.277C103.89,151.18 96.445,151.091 89,151L89,212L0,212L0,0ZM89,53L89,98C96.831,98.052 104.66,98.11 112.491,98.139C117.682,98.156 122.874,98.169 128.066,98.206C132.364,98.239 136.663,98.269 140.962,98.28C142.619,98.283 144.276,98.287 145.934,98.293C161.559,98.452 177.601,97.811 192,91C196.283,88.323 198.372,85.798 200,81C200.626,73.708 200.664,68.464 196.125,62.562C190.521,57.315 182.741,55.033 175.282,54.095L173.207,53.868C164.9,52.932 156.666,52.734 148.313,52.789C146.7,52.799 145.087,52.807 143.473,52.81C139.207,52.815 134.941,52.827 130.674,52.849C125.393,52.877 120.111,52.89 114.83,52.902C107.036,52.92 107.036,52.92 89,53Z" style="fill:rgb(1,1,1);"/>
            </g>
            <g transform="matrix(1,0,0,0.994693,793.314533,8.740467)">
                <path d="M0,0L82.75,-0.188L108.651,-0.27C119.28,-0.284 119.28,-0.284 124.292,-0.286C127.712,-0.289 131.132,-0.3 134.553,-0.317C152.997,-0.402 171.309,-0.176 189.696,1.378L191.924,1.564C220.583,4.03 252.015,9.709 273,31L274.738,32.707C285.337,43.963 288.533,58.996 288.375,73.938L288.41,77.24C288.35,94.114 282.993,109.916 271,122C263.956,128.093 256.307,132.83 248,137L250.93,138.398C263.243,144.475 272.533,151.295 277.695,164.551C280.193,172.402 281.422,180.629 282.824,188.73C283.714,193.768 284.902,198.644 286.327,203.556C287.002,206.008 287.501,208.506 288,211L204,211C199.526,203.17 199.526,203.17 198.125,198.188L197.125,194.809L196,191C191.793,177.022 188.15,165.003 175,157C162.564,150.772 147.809,150.711 134.191,150.586L130.603,150.532C126.257,150.47 121.91,150.423 117.562,150.375L88,150L88,211L0,211L0,0ZM89,53L89,98C96.445,98.052 103.89,98.11 111.335,98.139C116.284,98.156 121.233,98.169 126.182,98.206C140.965,98.328 155.913,98.877 170.619,97.109L173.27,96.738C180.821,95.691 187.523,93.343 193.875,89.062C197.254,85.783 198.88,83.277 199.328,78.52L199.25,74.812C199.17,68.474 198.425,65.641 194,61C181.988,52.377 181.988,52.377 149.837,52.683C148.183,52.699 146.528,52.71 144.874,52.715C140.497,52.723 136.121,52.741 131.744,52.774C126.327,52.815 120.91,52.836 115.492,52.854C107.495,52.88 107.495,52.88 89,53Z"/>
            </g>
            <g transform="matrix(1,0,0,0.994693,1117.314533,8.740467)">
                <rect x="0" y="0" width="89" height="212" style="fill:rgb(1,1,1);"/>
            </g>
            <g transform="matrix(1,0,0,0.994693,657.314533,8.740467)">
                <rect x="0" y="0" width="88" height="211"/>
            </g>
        </g>
    </g>
</svg>
