<?xml version="1.0" encoding="UTF-8" standalone="no"?>
<!DOCTYPE svg PUBLIC "-//W3C//DTD SVG 1.1//EN" "http://www.w3.org/Graphics/SVG/1.1/DTD/svg11.dtd">
<svg width="100%" height="100%" viewBox="0 0 1206 1115" version="1.1" xmlns="http://www.w3.org/2000/svg" xmlns:xlink="http://www.w3.org/1999/xlink" xml:space="preserve" xmlns:serif="http://www.serif.com/" style="fill-rule:evenodd;clip-rule:evenodd;stroke-linejoin:round;stroke-miterlimit:2;">
    <rect id="Artboard1" x="-0" y="0" width="1205.315" height="1114.251" style="fill:none;"/>
    <clipPath id="_clip1">
        <rect id="Artboard11" serif:id="Artboard1" x="-0" y="0" width="1205.315" height="1114.251"/>
    </clipPath>
    <g clip-path="url(#_clip1)">
        <g transform="matrix(1,0,0,1,608.314533,0)">
            <path d="M0,0C3.889,1.296 4.167,2.6 6.082,6.16C6.677,7.252 7.272,8.343 7.885,9.467C8.355,10.345 8.355,10.345 8.835,11.241C10.501,14.347 12.198,17.436 13.891,20.527C14.235,21.159 14.58,21.79 14.935,22.44C18.198,28.402 21.611,34.27 25.062,40.125C29.809,48.196 34.447,56.318 39,64.5C43.576,72.722 48.236,80.886 53,89C58.372,98.149 63.591,107.374 68.75,116.645C72.75,123.814 76.843,130.921 81,138C86.372,147.149 91.591,156.374 96.75,165.645C100.75,172.814 104.843,179.921 109,187C114.372,196.149 119.591,205.374 124.75,214.645C128.75,221.814 132.843,228.921 137,236C142.372,245.149 147.591,254.374 152.75,263.645C156.75,270.814 160.843,277.921 165,285C170.372,294.149 175.591,303.374 180.75,312.645C184.75,319.814 188.843,326.921 193,334C198.372,343.149 203.591,352.374 208.75,361.645C212.75,368.814 216.843,375.921 221,383C226.372,392.149 231.591,401.374 236.75,410.645C240.75,417.814 244.843,424.921 249,432C254.372,441.149 259.591,450.374 264.75,459.645C268.75,466.814 272.843,473.921 277,481C282.372,490.149 287.591,499.374 292.75,508.645C296.75,515.814 300.843,522.921 305,530C310.372,539.149 315.591,548.374 320.75,557.645C324.75,564.814 328.843,571.921 333,579C338.372,588.149 343.591,597.374 348.75,606.645C352.75,613.814 356.843,620.921 361,628C366.372,637.149 371.591,646.374 376.75,655.645C380.75,662.814 384.843,669.921 389,677C394.372,686.149 399.591,695.374 404.75,704.645C409.303,712.806 413.993,720.88 418.726,728.939C423.756,737.526 428.632,746.196 433.471,754.893C434.295,756.375 434.295,756.375 435.137,757.887C435.618,758.755 436.1,759.624 436.596,760.518C437.59,762.276 438.646,763.999 439.741,765.695C440.364,766.836 440.364,766.836 441,768C440.67,768.66 440.34,769.32 440,770C431.358,763.595 422.805,757.109 414.431,750.358C409.512,746.396 404.528,742.533 399.512,738.695C395.323,735.487 391.162,732.243 387,729C381.845,724.985 376.683,720.979 371.5,717C364.084,711.305 356.708,705.559 349.331,699.814C345.555,696.875 341.777,693.938 338,691C336.5,689.833 335,688.667 333.5,687.5C332.757,686.923 332.015,686.345 331.25,685.75C324.5,680.5 324.5,680.5 322.249,678.749C320.753,677.586 319.257,676.422 317.761,675.259C313.948,672.293 310.135,669.327 306.324,666.359C299.728,661.224 293.13,656.091 286.5,651C279.084,645.305 271.708,639.559 264.331,633.814C260.555,630.875 256.777,627.937 253,625C248.441,621.454 243.881,617.908 239.324,614.359C232.728,609.224 226.13,604.091 219.5,599C212.084,593.305 204.708,587.559 197.331,581.814C193.555,578.875 189.777,575.938 186,573C184.5,571.833 183,570.667 181.5,569.5C180.757,568.923 180.015,568.345 179.25,567.75C172.5,562.5 172.5,562.5 170.249,560.749C168.753,559.586 167.257,558.422 165.761,557.259C161.948,554.293 158.135,551.327 154.324,548.359C147.728,543.224 141.13,538.091 134.5,533C127.084,527.305 119.708,521.559 112.331,515.814C108.555,512.875 104.777,509.937 101,507C96.441,503.454 91.881,499.908 87.324,496.359C80.728,491.224 74.13,486.091 67.5,481C60.084,475.305 52.708,469.559 45.331,463.814C41.555,460.875 37.777,457.938 34,455C32.5,453.833 31,452.667 29.5,451.5C28.758,450.923 28.015,450.345 27.25,449.75C20.5,444.5 20.5,444.5 18.249,442.749C16.753,441.586 15.257,440.422 13.761,439.259C9.948,436.293 6.135,433.327 2.324,430.359C-4.272,425.224 -10.87,420.091 -17.5,415C-24.916,409.305 -32.292,403.559 -39.669,397.814C-43.445,394.875 -47.223,391.937 -51,389C-55.559,385.454 -60.119,381.908 -64.676,378.359C-71.272,373.224 -77.87,368.091 -84.5,363C-91.916,357.305 -99.292,351.559 -106.669,345.814C-110.445,342.875 -114.223,339.938 -118,337C-119.5,335.833 -121,334.667 -122.5,333.5C-123.243,332.923 -123.985,332.345 -124.75,331.75C-131.5,326.5 -131.5,326.5 -133.753,324.748C-135.243,323.589 -136.733,322.43 -138.224,321.272C-142.128,318.237 -146.028,315.197 -149.922,312.148C-150.73,311.517 -151.538,310.885 -152.371,310.234C-153.912,309.03 -155.451,307.825 -156.988,306.617C-157.688,306.071 -158.388,305.524 -159.109,304.961C-159.717,304.484 -160.326,304.008 -160.952,303.517C-163.566,301.581 -166.294,299.804 -169,298L-169,772L-441,772C-436.246,763.087 -431.514,754.298 -426.375,745.625C-421.481,737.305 -416.692,728.936 -412,720.5C-406.864,711.271 -401.598,702.128 -396.25,693.02C-392.078,685.895 -388.015,678.715 -384,671.5C-378.864,662.271 -373.598,653.128 -368.25,644.02C-364.078,636.895 -360.015,629.715 -356,622.5C-350.864,613.271 -345.598,604.128 -340.25,595.02C-336.078,587.895 -332.015,580.715 -328,573.5C-322.864,564.271 -317.598,555.128 -312.25,546.02C-308.078,538.895 -304.015,531.715 -300,524.5C-294.864,515.271 -289.598,506.128 -284.25,497.02C-280.078,489.895 -276.015,482.715 -272,475.5C-266.864,466.271 -261.598,457.128 -256.25,448.02C-252.078,440.895 -248.015,433.715 -244,426.5C-238.864,417.271 -233.598,408.128 -228.25,399.02C-224.078,391.895 -220.015,384.715 -216,377.5C-210.864,368.271 -205.598,359.128 -200.25,350.02C-196.078,342.895 -192.015,335.715 -188,328.5C-182.864,319.271 -177.598,310.128 -172.25,301.02C-168.078,293.895 -164.015,286.715 -160,279.5C-154.864,270.271 -149.598,261.128 -144.25,252.02C-140.078,244.895 -136.015,237.715 -132,230.5C-126.864,221.271 -121.598,212.128 -116.25,203.02C-112.078,195.895 -108.015,188.715 -104,181.5C-98.864,172.271 -93.598,163.128 -88.25,154.02C-84.078,146.895 -80.015,139.715 -76,132.5C-70.864,123.271 -65.598,114.128 -60.25,105.02C-56.078,97.895 -52.015,90.715 -48,83.5C-42.864,74.272 -37.6,65.13 -32.252,56.024C-28.055,48.858 -23.974,41.633 -19.938,34.375C-13.496,22.794 -6.805,11.371 0,0Z" style="fill-rule:nonzero;"/>
        </g>
        <g transform="matrix(1,0,0,1,439.314533,298)">
            <path d="M0,0C4.578,1.831 6.707,3.224 10.312,6.375C15.009,10.407 19.837,14.193 24.812,17.875C30.837,22.342 36.734,26.937 42.572,31.645C47.49,35.606 52.473,39.468 57.488,43.305C61.677,46.513 65.838,49.757 70,53C75.155,57.015 80.317,61.021 85.5,65C92.916,70.695 100.292,76.441 107.669,82.186C111.445,85.125 115.223,88.062 119,91C120.5,92.167 122,93.333 123.5,94.5C124.243,95.078 124.985,95.655 125.75,96.25C132.5,101.5 132.5,101.5 134.751,103.251C136.247,104.414 137.743,105.578 139.239,106.741C143.052,109.707 146.865,112.673 150.676,115.641C157.272,120.776 163.87,125.909 170.5,131C177.916,136.695 185.292,142.441 192.669,148.186C196.445,151.125 200.223,154.063 204,157C208.559,160.546 213.119,164.092 217.676,167.641C224.272,172.776 230.87,177.909 237.5,183C244.916,188.695 252.292,194.441 259.669,200.186C263.445,203.125 267.223,206.062 271,209C272.5,210.167 274,211.333 275.5,212.5C276.243,213.077 276.985,213.655 277.75,214.25C284.5,219.5 284.5,219.5 286.751,221.251C288.247,222.414 289.743,223.578 291.239,224.741C295.052,227.707 298.865,230.673 302.676,233.641C309.272,238.776 315.87,243.909 322.5,249C329.916,254.695 337.292,260.441 344.669,266.186C348.445,269.125 352.223,272.063 356,275C360.559,278.546 365.119,282.092 369.676,285.641C376.272,290.776 382.87,295.909 389.5,301C396.916,306.695 404.292,312.441 411.669,318.186C415.445,321.125 419.223,324.062 423,327C424.5,328.167 426,329.333 427.5,330.5C428.243,331.077 428.985,331.655 429.75,332.25C436.5,337.5 436.5,337.5 438.751,339.251C440.247,340.414 441.743,341.578 443.239,342.741C447.052,345.707 450.865,348.673 454.676,351.641C461.272,356.776 467.87,361.909 474.5,367C481.916,372.695 489.292,378.441 496.669,384.186C500.445,387.125 504.223,390.063 508,393C512.559,396.546 517.119,400.092 521.676,403.641C528.272,408.776 534.87,413.909 541.5,419C548.916,424.695 556.292,430.441 563.669,436.186C565.952,437.963 568.236,439.739 570.52,441.516C571.26,442.091 572,442.667 572.763,443.26C574.252,444.418 575.742,445.576 577.231,446.734C581.087,449.73 584.938,452.733 588.781,455.746C599.413,464.077 599.413,464.077 610.445,471.863C611.215,472.426 611.215,472.426 612,473L612,474L0,474L0,0Z" style="fill:rgb(254,144,77);fill-rule:nonzero;"/>
        </g>
        <g transform="matrix(1,0,0,1,267.904377,928.25)">
            <path d="M0,0C14.272,13.662 22.909,30.738 27.41,49.75L28.156,52.801C33.365,79.348 29.425,110.827 14.41,133.75C-5.955,162.972 -37.059,176.826 -71.277,183.255C-86.894,185.934 -102.543,186.01 -118.34,186L-121.359,185.998C-136.25,185.964 -150.95,185.673 -165.652,183.062L-168.606,182.538C-199.762,176.749 -229.902,164.381 -249.277,138C-255.043,129.277 -259.41,120.181 -262.402,110.188L-262.993,108.226C-266.103,97.113 -266.956,85.936 -266.902,74.438L-266.885,70.577C-266.533,43.21 -257.067,19.956 -237.59,0.75L-235.383,-1.488C-181.192,-53.192 -54.811,-47.619 0,0ZM-119.652,22.5C-129.97,22.428 -139.397,22.839 -148.803,27.414L-150.777,28.438C-155.812,31.022 -160.406,33.515 -164.148,37.863L-165.59,39.75C-169.699,44.741 -172.962,49.929 -175.527,55.875C-179.973,69.377 -179.668,85.922 -174,98.98L-172.59,101.75C-168.397,110.295 -161.645,117.23 -153.464,122.062C-136.752,130.293 -114.905,131.927 -96.84,127C-81.336,121.037 -70.777,113.687 -63.656,98.246L-62.59,95.75C-61.086,92.423 -60.152,89.367 -59.59,85.75C-58.525,67.554 -61.011,51.92 -73.59,37.75C-85.446,26.054 -100.078,22.515 -116.31,22.477L-119.652,22.5Z"/>
        </g>
        <g transform="matrix(1,0,0,1,399.002033,103.6875)">
            <path d="M0,0C1.169,0.002 1.169,0.002 2.361,0.005C20.238,0.066 37.248,1.656 54.312,7.312C55.742,7.751 57.171,8.187 58.602,8.621C71.695,12.686 83.468,18.471 95.312,25.312C94.799,30.524 92.139,34.283 89.438,38.625C88.339,40.422 87.241,42.221 86.145,44.02C85.536,45.015 84.927,46.011 84.299,47.038C80.934,52.585 77.641,58.176 74.338,63.761C67.82,74.782 61.236,85.76 54.562,96.688C48.497,106.622 42.612,116.649 36.826,126.749C32.056,135.063 27.163,143.295 22.214,151.503C17.49,159.34 12.812,167.203 8.15,175.077C1.689,185.989 -4.828,196.864 -11.438,207.688C-17.503,217.622 -23.388,227.649 -29.174,237.749C-33.944,246.063 -38.837,254.295 -43.786,262.503C-48.511,270.342 -53.19,278.207 -57.853,286.082C-64.532,297.361 -71.256,308.61 -78.062,319.812C-78.415,320.394 -78.768,320.975 -79.132,321.573C-82.944,327.845 -86.781,334.099 -90.688,340.312C-104.647,335.103 -116.549,323.958 -126.688,313.312C-127.513,312.488 -130.838,309.163 -131.688,308.312C-132.194,307.829 -132.701,307.345 -133.223,306.847C-137.818,302.4 -141.724,297.654 -145.5,292.5C-146.105,291.674 -146.711,290.848 -147.334,289.997C-175.552,250.745 -188.782,199.461 -181.5,151.5C-175.921,118.374 -161.279,86.23 -138.688,61.312C-137.927,60.432 -137.166,59.552 -136.383,58.645C-126.165,46.918 -114.572,37.884 -101.688,29.312C-101.064,28.896 -100.44,28.479 -99.797,28.05C-70.227,8.589 -35.076,-0.168 0,0Z" style="fill:rgb(255,189,89);fill-rule:nonzero;"/>
        </g>
        <g transform="matrix(1,0,0,1,332.314533,898)">
            <path d="M0,0L84.938,-0.188L111.554,-0.27C122.45,-0.284 122.45,-0.284 127.584,-0.286C131.098,-0.289 134.611,-0.3 138.125,-0.317C240.608,-0.779 240.608,-0.779 271.889,28.675C285.185,41.886 289.175,58.019 289.312,76.125C289.34,93.312 284.504,109.117 272.418,121.75C266.624,127.142 256.337,136 248,136L248,138L251.812,139C261.446,142.221 270.419,149.361 275.262,158.34C278.499,165.182 280.226,171.688 281.5,179.125C283.056,187.574 284.87,195.773 287.477,203.961C288.372,206.781 289,209.017 289,212L205,212C199.408,200.816 199.408,200.816 198,195.312L197.016,191.719L196,188C192.138,174.229 187.357,163.924 174.711,156.34C167.312,152.683 159.956,151.898 151.78,151.795L149.708,151.765C147.473,151.733 145.238,151.708 143.004,151.684L138.326,151.621C134.24,151.566 130.155,151.516 126.07,151.468C121.158,151.408 116.246,151.342 111.334,151.277C103.89,151.18 96.445,151.091 89,151L89,212L0,212L0,0ZM89,53L89,98C96.877,98.035 104.753,98.073 112.629,98.092C117.843,98.104 123.058,98.113 128.272,98.137C132.595,98.16 136.918,98.179 141.242,98.187L146.227,98.195C161.537,98.298 176.592,97.832 191,92C195.56,89.406 198.367,85.991 200,81C200.617,73.704 200.668,68.468 196.125,62.562C190.521,57.315 182.741,55.033 175.282,54.095L173.207,53.868C164.9,52.932 156.666,52.734 148.313,52.789C146.7,52.799 145.087,52.807 143.473,52.81C139.207,52.815 134.941,52.827 130.674,52.849C125.393,52.877 120.111,52.89 114.83,52.902C107.036,52.92 107.036,52.92 89,53Z" style="fill:rgb(1,1,1);"/>
        </g>
        <g transform="matrix(1,0,0,1,793.314533,898)">
            <path d="M0,0L82.75,-0.188L108.651,-0.27C119.28,-0.284 119.28,-0.284 124.292,-0.286C127.712,-0.289 131.132,-0.3 134.553,-0.317C152.997,-0.402 171.309,-0.176 189.696,1.378L191.924,1.564C221.524,4.111 254.24,10.111 274.996,33.223C287.994,49.071 289.054,67.31 288,87C287.431,91.224 286.458,95.003 285,99L283.969,102.031C278.233,117.377 266.515,127.913 252,135C249.137,135.695 249.137,135.695 247,136L247,138L249.137,138.309C259.162,140.729 267.763,148.083 273.645,156.297C278.781,165.088 280.024,174.999 281.836,184.883C282.97,191.036 284.48,197.002 286.203,203.012C286.99,205.964 287.498,208.986 288,212L204,212C198.385,200.769 198.385,200.769 197.156,196.125L196.316,193.078L194.684,186.922C191.425,175.1 186.934,164.68 176.438,157.75C163.931,150.687 148.744,150.865 134.777,150.684L131.171,150.627C126.76,150.559 122.349,150.499 117.938,150.438L88,150L88,212L0,212L0,0ZM89,53L89,98C96.491,98.035 103.982,98.073 111.473,98.092C116.445,98.104 121.416,98.113 126.388,98.137C130.501,98.16 134.614,98.179 138.727,98.187L143.492,98.195C151.809,98.254 160.038,98.192 168.321,97.359L170.704,97.101C178.927,96.218 186.82,94.718 193.5,89.562C196.971,86.005 198.853,83.559 199.328,78.52L199.25,74.812C199.17,68.474 198.425,65.641 194,61C181.988,52.377 181.988,52.377 149.837,52.683C148.183,52.699 146.528,52.71 144.874,52.715C140.497,52.723 136.121,52.741 131.744,52.774C126.327,52.815 120.91,52.836 115.492,52.854C107.495,52.88 107.495,52.88 89,53Z" style="fill:rgb(1,1,1);"/>
        </g>
        <g transform="matrix(1,0,0,1,439.314533,298)">
            <path d="M0,0L2,0C2.262,0.717 2.523,1.433 2.793,2.171C6.272,11.472 10.274,20.49 14.382,29.527C16.003,33.095 17.617,36.667 19.232,40.239C20.04,42.029 20.849,43.817 21.659,45.606C24.758,52.455 27.828,59.315 30.875,66.188C31.33,67.213 31.785,68.238 32.254,69.295C33.531,72.174 34.807,75.053 36.083,77.932C39.594,85.852 43.109,93.77 46.625,101.688C47.266,103.13 47.266,103.13 47.919,104.602C54.075,118.46 60.269,132.3 66.5,146.125C73.072,160.708 79.601,175.309 86.083,189.932C89.594,197.852 93.109,205.77 96.625,213.688C97.266,215.13 97.266,215.13 97.919,216.602C104.075,230.46 110.269,244.3 116.5,258.125C123.072,272.708 129.601,287.309 136.083,301.932C139.594,309.852 143.109,317.77 146.625,325.688C147.052,326.649 147.479,327.611 147.919,328.602C154.075,342.46 160.269,356.3 166.5,370.125C172.77,384.036 179.004,397.962 185.187,411.912C188.814,420.092 192.448,428.269 196.081,436.446C197.408,439.433 198.734,442.42 200.06,445.407C200.893,447.282 201.726,449.157 202.559,451.031C202.954,451.923 203.35,452.814 203.757,453.733C206.201,459.231 208.683,464.709 211.242,470.154C212,472 212,472 212,474L0,474L0,0Z" style="fill:rgb(254,87,86);fill-rule:nonzero;"/>
        </g>
        <g transform="matrix(1,0,0,1,445.314533,303)">
            <path d="M0,0C4.396,1.462 7.643,3.859 11.188,6.75C12.436,7.749 13.684,8.748 14.934,9.746C15.923,10.541 15.923,10.541 16.933,11.351C20.512,14.206 24.132,17.007 27.75,19.812C29.287,21.006 30.823,22.2 32.359,23.395C33.127,23.991 33.895,24.587 34.686,25.202C38.458,28.133 42.229,31.067 46,34C46.739,34.574 47.477,35.149 48.238,35.74C52.051,38.706 55.864,41.673 59.676,44.641C66.272,49.776 72.87,54.909 79.5,60C86.916,65.695 94.292,71.441 101.669,77.186C105.445,80.125 109.223,83.062 113,86C114.5,87.167 116,88.333 117.5,89.5C118.243,90.078 118.985,90.655 119.75,91.25C126.5,96.5 126.5,96.5 128.751,98.251C130.247,99.414 131.743,100.578 133.239,101.741C137.052,104.707 140.865,107.673 144.676,110.641C151.272,115.776 157.87,120.909 164.5,126C171.916,131.695 179.292,137.441 186.669,143.186C190.445,146.125 194.223,149.063 198,152C202.559,155.546 207.119,159.092 211.676,162.641C218.272,167.776 224.87,172.909 231.5,178C238.916,183.695 246.292,189.441 253.669,195.186C257.445,198.125 261.223,201.062 265,204C266.5,205.167 268,206.333 269.5,207.5C270.243,208.077 270.985,208.655 271.75,209.25C278.5,214.5 278.5,214.5 280.751,216.251C282.247,217.414 283.743,218.578 285.239,219.741C289.052,222.707 292.865,225.673 296.676,228.641C303.272,233.776 309.87,238.909 316.5,244C323.916,249.695 331.292,255.441 338.669,261.186C342.445,264.125 346.223,267.063 350,270C354.559,273.546 359.119,277.092 363.676,280.641C370.272,285.776 376.87,290.909 383.5,296C390.916,301.695 398.292,307.441 405.669,313.186C409.445,316.125 413.223,319.062 417,322C418.5,323.167 420,324.333 421.5,325.5C422.243,326.077 422.985,326.655 423.75,327.25C430.5,332.5 430.5,332.5 432.751,334.251C434.247,335.414 435.743,336.578 437.239,337.741C441.052,340.707 444.865,343.673 448.676,346.641C455.272,351.776 461.87,356.909 468.5,362C475.916,367.695 483.292,373.441 490.669,379.186C494.445,382.125 498.223,385.063 502,388C506.559,391.546 511.119,395.092 515.676,398.641C522.272,403.776 528.87,408.909 535.5,414C542.916,419.695 550.292,425.441 557.669,431.186C559.952,432.963 562.236,434.739 564.52,436.516C565.26,437.091 566,437.667 566.763,438.26C568.252,439.418 569.742,440.576 571.231,441.734C575.087,444.73 578.938,447.733 582.781,450.746C593.413,459.077 593.413,459.077 604.445,466.863C605.215,467.426 605.215,467.426 606,468L606,469C581.609,469.164 557.218,469.287 532.826,469.363C521.501,469.399 510.176,469.448 498.85,469.528C488.979,469.598 479.108,469.643 469.237,469.659C464.01,469.668 458.784,469.689 453.557,469.74C448.636,469.788 443.716,469.802 438.795,469.792C436.99,469.794 435.186,469.808 433.381,469.834C419.735,470.028 419.735,470.028 415.402,467.461C413.64,465.727 412.319,464.081 411,462C410.374,461.313 409.747,460.626 409.102,459.918C408.614,459.347 408.127,458.776 407.625,458.188C403.487,453.394 399.244,448.699 395,444C390.23,438.717 385.481,433.421 380.805,428.055C377.244,424 373.617,420.005 370,416C365.23,410.717 360.481,405.421 355.805,400.055C352.244,396 348.617,392.005 345,388C340.23,382.717 335.481,377.421 330.805,372.055C327.244,368 323.617,364.005 320,360C315.23,354.717 310.481,349.421 305.805,344.055C302.244,340 298.617,336.005 295,332C290.23,326.717 285.481,321.421 280.805,316.055C277.244,312 273.617,308.005 270,304C265.23,298.717 260.481,293.421 255.805,288.055C252.244,284 248.617,280.005 245,276C240.23,270.717 235.481,265.421 230.805,260.055C227.244,256 223.617,252.005 220,248C215.23,242.717 210.481,237.421 205.805,232.055C202.244,228 198.617,224.005 195,220C190.23,214.717 185.481,209.421 180.805,204.055C177.244,200 173.617,196.005 170,192C165.23,186.717 160.481,181.421 155.805,176.055C152.244,172 148.617,168.005 145,164C140.23,158.717 135.481,153.421 130.805,148.055C127.244,144 123.617,140.005 120,136C115.23,130.717 110.481,125.421 105.805,120.055C102.244,116 98.617,112.005 95,108C90.23,102.717 85.481,97.421 80.805,92.055C77.244,88 73.617,84.005 70,80C65.23,74.717 60.481,69.421 55.805,64.055C52.244,60 48.617,56.005 45,52C40.23,46.717 35.481,41.421 30.805,36.055C27.244,32 23.617,28.005 20,24C16.994,20.672 13.994,17.339 11,14C10.346,13.276 9.693,12.551 9.02,11.805C5.659,8.036 2.677,4.283 0,0Z" style="fill:rgb(254,188,88);fill-rule:nonzero;"/>
        </g>
        <g transform="matrix(1,0,0,1,1117.314533,898)">
            <rect x="0" y="0" width="89" height="212" style="fill:rgb(1,1,1);"/>
        </g>
        <g transform="matrix(1,0,0,1,657.314533,898)">
            <rect x="0" y="0" width="88" height="212"/>
        </g>
    </g>
</svg>
